<svg width="100" height="100" viewBox="0 0 100 100" fill="none" xmlns="http://www.w3.org/2000/svg">
<path d="M70 7.5H31C20.7827 7.5 12.5 15.7827 12.5 26V62V80.7108C12.5 85.2352 15.3065 89.2849 19.5428 90.8736C21.7194 91.6898 24.1005 91.7856 26.3356 91.147L26.8808 90.9912C32.2786 89.449 36 84.5154 36 78.9017V66.1311C36 64.4737 36.8881 62.9433 38.3272 62.121C39.7054 61.3334 41.3915 61.3088 42.7922 62.0558L42.9181 62.123C44.5073 62.9706 45.5 64.6251 45.5 66.4262V80.4298C45.5 85.1274 48.4623 89.3143 52.8921 90.8777C55.2154 91.6978 57.7458 91.72 60.0832 90.9408L60.1932 90.9042C64.8553 89.3501 68 84.9871 68 80.0728V64.0918C68 63.4754 68.2636 62.8883 68.7243 62.4788C69.5102 61.7802 70.6852 61.7497 71.5063 62.4066L71.6233 62.5002C72.1774 62.9435 72.5 63.6146 72.5 64.3242V83.235C72.5 86.1626 74.0991 88.8563 76.6692 90.2582C79.057 91.5606 81.943 91.5606 84.3308 90.2582C86.9009 88.8563 88.5 86.1626 88.5 83.235V62V26C88.5 15.7827 80.2173 7.5 70 7.5Z" fill="#AD9DB9" stroke="black" stroke-width="5"/>
<path d="M77.125 39.6667V29.3333C77.1245 28.8803 77.0049 28.4354 76.7782 28.0432C76.5515 27.651 76.2257 27.3253 75.8333 27.0988L66.7917 21.9321C66.399 21.7053 65.9535 21.586 65.5 21.586C65.0465 21.586 64.601 21.7053 64.2083 21.9321L55.1667 27.0988C54.7743 27.3253 54.4485 27.651 54.2218 28.0432C53.9951 28.4354 53.8755 28.8803 53.875 29.3333V39.6667C53.8755 40.1197 53.9951 40.5646 54.2218 40.9568C54.4485 41.349 54.7743 41.6747 55.1667 41.9013L64.2083 47.0679C64.601 47.2947 65.0465 47.414 65.5 47.414C65.9535 47.414 66.399 47.2947 66.7917 47.0679L75.8333 41.9013C76.2257 41.6747 76.5515 41.349 76.7782 40.9568C77.0049 40.5646 77.1245 40.1197 77.125 39.6667Z" stroke="black" stroke-width="5" stroke-linecap="round" stroke-linejoin="round"/>
</svg>
